<svg xmlns="http://www.w3.org/2000/svg" xmlns:xlink="http://www.w3.org/1999/xlink" width="100" zoomAndPan="magnify" viewBox="0 0 75 74.999997" height="100" preserveAspectRatio="xMidYMid meet" version="1.0"><path fill="#ffffff" d="M 16.464844 10.03125 C 13.804688 12.011719 11.113281 14.675781 9.339844 17.082031 C 9.0625 17.460938 8.65625 17.984375 8.453125 18.230469 C 7.171875 19.820312 5.71875 22.847656 5.6875 23.984375 C 5.644531 25.484375 6.460938 27.203125 7.898438 28.675781 C 9.136719 29.941406 10.445312 30.84375 12.390625 31.804688 C 13.148438 32.167969 13.832031 32.535156 13.917969 32.59375 C 13.992188 32.664062 14.398438 32.824219 14.792969 32.941406 C 15.199219 33.058594 15.984375 33.335938 16.535156 33.554688 C 17.105469 33.773438 17.785156 34.003906 18.0625 34.0625 C 18.339844 34.136719 18.890625 34.296875 19.285156 34.414062 C 19.691406 34.542969 20.402344 34.71875 20.882812 34.804688 C 22.019531 35.011719 22.6875 35.140625 23.953125 35.445312 C 26.757812 36.101562 27.746094 36.21875 31.804688 36.394531 C 35.976562 36.582031 46.984375 36.378906 48.453125 36.085938 C 49.585938 35.871094 50.285156 35.710938 51.359375 35.445312 C 51.882812 35.316406 52.609375 35.140625 53.003906 35.066406 C 53.382812 34.996094 53.992188 34.878906 54.386719 34.804688 C 55.214844 34.644531 56.273438 34.367188 56.667969 34.207031 C 57.832031 33.757812 58.265625 33.597656 59.429688 33.246094 C 60.828125 32.839844 62.671875 31.980469 64.445312 30.902344 C 65.042969 30.554688 65.667969 30.175781 65.828125 30.085938 C 66.453125 29.707031 68.082031 28.355469 68.226562 28.089844 C 68.359375 27.859375 68.15625 27.347656 67.078125 25.222656 C 65.390625 21.871094 63.253906 18.667969 61.246094 16.5 C 60.652344 15.84375 60.042969 15.144531 59.894531 14.925781 C 59.75 14.722656 59.574219 14.546875 59.488281 14.546875 C 59.414062 14.546875 59.082031 14.792969 58.734375 15.101562 C 57.628906 16.105469 55.359375 17.386719 53.542969 18.054688 C 51.957031 18.640625 48.945312 19.382812 47.144531 19.613281 C 46.707031 19.671875 46.183594 19.820312 45.980469 19.933594 C 45.457031 20.242188 32.617188 20.242188 31.949219 19.933594 C 31.714844 19.832031 31.148438 19.6875 30.714844 19.628906 C 30.277344 19.570312 29.621094 19.441406 29.257812 19.351562 C 28.894531 19.265625 28.34375 19.132812 28.023438 19.0625 C 27.472656 18.945312 24.882812 18.214844 23.953125 17.925781 C 23.328125 17.722656 20.871094 16.425781 20.070312 15.886719 C 19.285156 15.332031 18.324219 14.300781 17.84375 13.453125 C 17.410156 12.695312 17.132812 11.445312 17.277344 10.933594 C 17.335938 10.714844 17.394531 10.46875 17.410156 10.382812 C 17.4375 10.292969 17.496094 10.003906 17.554688 9.753906 C 17.613281 9.507812 17.597656 9.304688 17.523438 9.316406 C 17.46875 9.316406 16.988281 9.652344 16.464844 10.03125 Z M 16.464844 10.03125 " fill-opacity="1" fill-rule="nonzero"/><path fill="#ffffff" d="M 71.617188 29.214844 C 71.511719 29.429688 71.425781 29.679688 71.425781 29.765625 C 71.425781 29.855469 71.222656 30.4375 70.988281 31.0625 C 70.175781 33.175781 68.242188 35.5625 65.449219 37.953125 C 64.433594 38.8125 60.40625 41.242188 59.167969 41.753906 C 58.675781 41.957031 58.136719 42.203125 57.976562 42.308594 C 57.816406 42.410156 57.03125 42.730469 56.246094 43.019531 C 55.445312 43.3125 54.632812 43.632812 54.429688 43.75 C 53.917969 44.011719 51.855469 44.695312 51.535156 44.695312 C 51.402344 44.695312 50.765625 44.855469 50.125 45.046875 C 48.394531 45.582031 47.171875 45.890625 46.269531 46.007812 C 45.835938 46.066406 45.179688 46.179688 44.816406 46.269531 C 44.148438 46.441406 42.535156 46.675781 40.601562 46.894531 C 35.164062 47.519531 28.488281 47.519531 22.714844 46.894531 C 22.03125 46.820312 20.796875 46.675781 19.953125 46.589844 C 19.109375 46.5 18.105469 46.339844 17.699219 46.226562 C 17.308594 46.109375 16.738281 45.976562 16.464844 45.933594 C 16.1875 45.890625 15.664062 45.789062 15.300781 45.714844 C 14.9375 45.640625 14.414062 45.539062 14.136719 45.496094 C 13.859375 45.4375 13.496094 45.351562 13.335938 45.277344 C 12.4375 44.871094 11.882812 44.695312 11.519531 44.695312 C 11.082031 44.695312 8.960938 44.054688 8.351562 43.734375 C 8.132812 43.617188 7.871094 43.53125 7.769531 43.53125 C 7.667969 43.53125 7.476562 43.472656 7.332031 43.398438 C 7.203125 43.3125 6.664062 43.121094 6.140625 42.949219 C 5.121094 42.628906 4.628906 42.410156 3.378906 41.78125 C 2.941406 41.5625 2.417969 41.332031 2.230469 41.273438 L 1.878906 41.171875 L 1.980469 42.453125 C 2.097656 43.953125 2.460938 46.457031 2.636719 47.097656 C 2.707031 47.332031 2.914062 48.160156 3.085938 48.917969 C 3.449219 50.464844 4.003906 52.167969 4.292969 52.617188 C 4.410156 52.792969 4.613281 53.246094 4.757812 53.652344 C 4.917969 54.046875 5.253906 54.804688 5.53125 55.328125 C 5.804688 55.851562 6.210938 56.636719 6.445312 57.074219 C 7.304688 58.707031 8.800781 60.773438 9.339844 61.035156 C 10.691406 61.707031 15.53125 63.191406 16.332031 63.191406 C 16.476562 63.191406 17.105469 63.351562 17.699219 63.558594 C 18.324219 63.761719 19.851562 64.050781 21.160156 64.210938 C 22.453125 64.386719 24.011719 64.589844 24.605469 64.664062 C 25.203125 64.738281 26.378906 64.867188 27.222656 64.941406 C 28.066406 65.011719 29.171875 65.128906 29.695312 65.21875 C 30.859375 65.40625 37.257812 65.421875 38.054688 65.230469 C 38.375 65.160156 39.351562 65.042969 40.207031 65 C 41.066406 64.941406 41.808594 64.839844 41.851562 64.765625 C 41.894531 64.707031 42.230469 64.648438 42.59375 64.648438 C 43.988281 64.648438 49.324219 63.804688 50.835938 63.351562 C 51.433594 63.164062 52.234375 62.960938 53.46875 62.667969 C 55.226562 62.261719 59.402344 60.714844 61.464844 59.710938 C 61.945312 59.464844 62.671875 59.128906 63.066406 58.941406 C 63.761719 58.605469 64.417969 58.210938 66.554688 56.796875 C 67.804688 55.96875 69.886719 54.164062 70.511719 53.375 C 70.945312 52.808594 71.28125 52.007812 72.09375 49.5 C 72.675781 47.738281 73.316406 43.878906 73.316406 42.148438 C 73.316406 41.652344 73.390625 41.183594 73.476562 41.097656 C 73.925781 40.644531 72.96875 31.921875 72.226562 29.765625 C 71.890625 28.820312 71.820312 28.761719 71.617188 29.214844 Z M 71.617188 29.214844 " fill-opacity="1" fill-rule="nonzero"/></svg>